<svg xmlns="http://www.w3.org/2000/svg" width="900" height="700" viewBox="0 0 900 700">
  <defs>
    <radialGradient id="sand" cx="40%" cy="35%" r="65%">
      <stop offset="0" stop-color="#f2d6a2"/>
      <stop offset="1" stop-color="#caa36a"/>
    </radialGradient>
    <radialGradient id="grass" cx="45%" cy="35%" r="70%">
      <stop offset="0" stop-color="#76c66f"/>
      <stop offset="1" stop-color="#1f6b4a"/>
    </radialGradient>
    <filter id="shadow" x="-30%" y="-30%" width="160%" height="160%">
      <feGaussianBlur in="SourceAlpha" stdDeviation="18" result="blur"/>
      <feOffset dx="0" dy="22" result="off"/>
      <feColorMatrix in="off" type="matrix"
        values="0 0 0 0 0
                0 0 0 0 0
                0 0 0 0 0
                0 0 0 0.45 0" result="shadow"/>
      <feMerge>
        <feMergeNode in="shadow"/>
        <feMergeNode in="SourceGraphic"/>
      </feMerge>
    </filter>
  </defs>

  <!-- Transparent background by default -->
  <g filter="url(#shadow)">
    <!-- Outer shore -->
    <path d="M175,420 C145,330 160,255 230,205 C305,150 390,130 470,140 C555,150 640,190 700,260 C760,330 770,420 720,495 C660,585 555,610 450,600 C340,590 225,540 175,420 Z"
          fill="url(#sand)" stroke="rgba(255,255,255,0.10)" stroke-width="6"/>
    <!-- Inner grass mass -->
    <path d="M240,420 C220,350 250,290 315,250 C380,212 450,200 520,210 C595,220 645,265 675,320 C705,375 700,440 660,495 C600,575 505,590 420,570 C335,550 265,500 240,420 Z"
          fill="url(#grass)" stroke="rgba(0,0,0,0.18)" stroke-width="4"/>

    <!-- Little cliffs -->
    <path d="M300,505 C330,540 385,565 445,570 C415,540 380,520 340,500 Z" fill="rgba(10,20,18,0.22)"/>
    <path d="M590,260 C630,290 655,330 660,370 C675,330 670,290 650,250 Z" fill="rgba(10,20,18,0.18)"/>

    <!-- Trees blobs -->
    <g opacity="0.9">
      <circle cx="355" cy="345" r="22" fill="rgba(18,58,40,0.65)"/>
      <circle cx="385" cy="330" r="18" fill="rgba(16,64,42,0.62)"/>
      <circle cx="410" cy="360" r="20" fill="rgba(14,56,38,0.62)"/>
      <circle cx="520" cy="320" r="24" fill="rgba(12,52,36,0.62)"/>
      <circle cx="555" cy="345" r="18" fill="rgba(16,62,42,0.58)"/>
      <circle cx="500" cy="380" r="20" fill="rgba(16,60,40,0.60)"/>
    </g>

    <!-- Spawn plateau hint -->
    <ellipse cx="450" cy="410" rx="95" ry="55" fill="rgba(230,210,160,0.10)" stroke="rgba(255,255,255,0.08)" stroke-width="3"/>
  </g>
</svg>

